<?xml version="1.0" encoding="utf-8" standalone="no"?>
<!DOCTYPE svg PUBLIC "-//W3C//DTD SVG 1.1//EN"
  "http://www.w3.org/Graphics/SVG/1.1/DTD/svg11.dtd">
<svg xmlns:xlink="http://www.w3.org/1999/xlink" width="984.182031pt" height="141.425313pt" viewBox="0 0 984.182031 141.425313" xmlns="http://www.w3.org/2000/svg" version="1.1">
 <metadata>
  <rdf:RDF xmlns:dc="http://purl.org/dc/elements/1.1/" xmlns:cc="http://creativecommons.org/ns#" xmlns:rdf="http://www.w3.org/1999/02/22-rdf-syntax-ns#">
   <cc:Work>
    <dc:type rdf:resource="http://purl.org/dc/dcmitype/StillImage"/>
    <dc:date>2025-08-24T18:15:26.188682</dc:date>
    <dc:format>image/svg+xml</dc:format>
    <dc:creator>
     <cc:Agent>
      <dc:title>Matplotlib v3.10.3, https://matplotlib.org/</dc:title>
     </cc:Agent>
    </dc:creator>
   </cc:Work>
  </rdf:RDF>
 </metadata>
 <defs>
  <style type="text/css">*{stroke-linejoin: round; stroke-linecap: butt}</style>
 </defs>
 <g id="figure_1">
  <g id="patch_1">
   <path d="M 0 141.425313 
L 984.182031 141.425313 
L 984.182031 0 
L 0 0 
z
" style="fill: #ffffff"/>
  </g>
  <g id="axes_1">
   <g id="patch_2">
    <path d="M 25.601563 118.08 
L 974.201563 118.08 
L 974.201563 7.2 
L 25.601563 7.2 
z
" style="fill: #ffffff"/>
   </g>
   <g id="PathCollection_1">
    <defs>
     <path id="mf03f8ab6c9" d="M 0 3 
C 0.795609 3 1.55874 2.683901 2.12132 2.12132 
C 2.683901 1.55874 3 0.795609 3 0 
C 3 -0.795609 2.683901 -1.55874 2.12132 -2.12132 
C 1.55874 -2.683901 0.795609 -3 0 -3 
C -0.795609 -3 -1.55874 -2.683901 -2.12132 -2.12132 
C -2.683901 -1.55874 -3 -0.795609 -3 0 
C -3 0.795609 -2.683901 1.55874 -2.12132 2.12132 
C -1.55874 2.683901 -0.795609 3 0 3 
z
" style="stroke: #000000; stroke-opacity: 0.25"/>
    </defs>
    <g clip-path="url(#paf8bcd51aa)">
     <use xlink:href="#mf03f8ab6c9" x="914.914063" y="79.776" style="fill-opacity: 0.25; stroke: #000000; stroke-opacity: 0.25"/>
     <use xlink:href="#mf03f8ab6c9" x="917.285563" y="76.752" style="fill-opacity: 0.25; stroke: #000000; stroke-opacity: 0.25"/>
     <use xlink:href="#mf03f8ab6c9" x="919.657063" y="71.1072" style="fill-opacity: 0.25; stroke: #000000; stroke-opacity: 0.25"/>
     <use xlink:href="#mf03f8ab6c9" x="922.028563" y="61.4304" style="fill-opacity: 0.25; stroke: #000000; stroke-opacity: 0.25"/>
     <use xlink:href="#mf03f8ab6c9" x="924.400063" y="65.0592" style="fill-opacity: 0.25; stroke: #000000; stroke-opacity: 0.25"/>
     <use xlink:href="#mf03f8ab6c9" x="926.771563" y="82.8" style="fill-opacity: 0.25; stroke: #000000; stroke-opacity: 0.25"/>
     <use xlink:href="#mf03f8ab6c9" x="929.143063" y="67.68" style="fill-opacity: 0.25; stroke: #000000; stroke-opacity: 0.25"/>
     <use xlink:href="#mf03f8ab6c9" x="931.514563" y="75.5424" style="fill-opacity: 0.25; stroke: #000000; stroke-opacity: 0.25"/>
     <use xlink:href="#mf03f8ab6c9" x="933.886063" y="71.5104" style="fill-opacity: 0.25; stroke: #000000; stroke-opacity: 0.25"/>
     <use xlink:href="#mf03f8ab6c9" x="936.257563" y="68.0832" style="fill-opacity: 0.25; stroke: #000000; stroke-opacity: 0.25"/>
     <use xlink:href="#mf03f8ab6c9" x="938.629063" y="67.0752" style="fill-opacity: 0.25; stroke: #000000; stroke-opacity: 0.25"/>
     <use xlink:href="#mf03f8ab6c9" x="941.000563" y="64.656" style="fill-opacity: 0.25; stroke: #000000; stroke-opacity: 0.25"/>
     <use xlink:href="#mf03f8ab6c9" x="943.372063" y="68.0832" style="fill-opacity: 0.25; stroke: #000000; stroke-opacity: 0.25"/>
     <use xlink:href="#mf03f8ab6c9" x="945.743563" y="65.8656" style="fill-opacity: 0.25; stroke: #000000; stroke-opacity: 0.25"/>
     <use xlink:href="#mf03f8ab6c9" x="948.115063" y="64.4544" style="fill-opacity: 0.25; stroke: #000000; stroke-opacity: 0.25"/>
     <use xlink:href="#mf03f8ab6c9" x="950.486563" y="63.8496" style="fill-opacity: 0.25; stroke: #000000; stroke-opacity: 0.25"/>
     <use xlink:href="#mf03f8ab6c9" x="952.858063" y="60.8256" style="fill-opacity: 0.25; stroke: #000000; stroke-opacity: 0.25"/>
     <use xlink:href="#mf03f8ab6c9" x="955.229563" y="58.608" style="fill-opacity: 0.25; stroke: #000000; stroke-opacity: 0.25"/>
     <use xlink:href="#mf03f8ab6c9" x="957.601063" y="57.3984" style="fill-opacity: 0.25; stroke: #000000; stroke-opacity: 0.25"/>
     <use xlink:href="#mf03f8ab6c9" x="959.972563" y="56.592" style="fill-opacity: 0.25; stroke: #000000; stroke-opacity: 0.25"/>
     <use xlink:href="#mf03f8ab6c9" x="962.344063" y="58.2048" style="fill-opacity: 0.25; stroke: #000000; stroke-opacity: 0.25"/>
     <use xlink:href="#mf03f8ab6c9" x="964.715563" y="56.7936" style="fill-opacity: 0.25; stroke: #000000; stroke-opacity: 0.25"/>
     <use xlink:href="#mf03f8ab6c9" x="967.087063" y="51.1488" style="fill-opacity: 0.25; stroke: #000000; stroke-opacity: 0.25"/>
     <use xlink:href="#mf03f8ab6c9" x="969.458563" y="46.3104" style="fill-opacity: 0.25; stroke: #000000; stroke-opacity: 0.25"/>
     <use xlink:href="#mf03f8ab6c9" x="971.830063" y="39.0528" style="fill-opacity: 0.25; stroke: #000000; stroke-opacity: 0.25"/>
     <use xlink:href="#mf03f8ab6c9" x="974.201563" y="34.2144" style="fill-opacity: 0.25; stroke: #000000; stroke-opacity: 0.25"/>
    </g>
   </g>
   <g id="matplotlib.axis_1">
    <g id="xtick_1">
     <g id="line2d_1">
      <defs>
       <path id="m7faec14a27" d="M 0 0 
L 0 3.5 
" style="stroke: #000000; stroke-width: 0.8"/>
      </defs>
      <g>
       <use xlink:href="#m7faec14a27" x="974.201563" y="118.08" style="stroke: #000000; stroke-width: 0.8"/>
      </g>
     </g>
     <g id="text_1">
      <!-- 0 -->
      <g transform="translate(971.421094 132.237813) scale(0.1 -0.1)">
       <defs>
        <path id="ArialMT-30" d="M 266 2259 
Q 266 3072 433 3567 
Q 600 4063 929 4331 
Q 1259 4600 1759 4600 
Q 2128 4600 2406 4451 
Q 2684 4303 2865 4023 
Q 3047 3744 3150 3342 
Q 3253 2941 3253 2259 
Q 3253 1453 3087 958 
Q 2922 463 2592 192 
Q 2263 -78 1759 -78 
Q 1097 -78 719 397 
Q 266 969 266 2259 
z
M 844 2259 
Q 844 1131 1108 757 
Q 1372 384 1759 384 
Q 2147 384 2411 759 
Q 2675 1134 2675 2259 
Q 2675 3391 2411 3762 
Q 2147 4134 1753 4134 
Q 1366 4134 1134 3806 
Q 844 3388 844 2259 
z
" transform="scale(0.015625)"/>
       </defs>
       <use xlink:href="#ArialMT-30"/>
      </g>
     </g>
    </g>
    <g id="xtick_2">
     <g id="line2d_2">
      <g>
       <use xlink:href="#m7faec14a27" x="855.626563" y="118.08" style="stroke: #000000; stroke-width: 0.8"/>
      </g>
     </g>
     <g id="text_2">
      <!-- 500 -->
      <g transform="translate(847.285156 132.237813) scale(0.1 -0.1)">
       <defs>
        <path id="ArialMT-35" d="M 266 1200 
L 856 1250 
Q 922 819 1161 601 
Q 1400 384 1738 384 
Q 2144 384 2425 690 
Q 2706 997 2706 1503 
Q 2706 1984 2436 2262 
Q 2166 2541 1728 2541 
Q 1456 2541 1237 2417 
Q 1019 2294 894 2097 
L 366 2166 
L 809 4519 
L 3088 4519 
L 3088 3981 
L 1259 3981 
L 1013 2750 
Q 1425 3038 1878 3038 
Q 2478 3038 2890 2622 
Q 3303 2206 3303 1553 
Q 3303 931 2941 478 
Q 2500 -78 1738 -78 
Q 1113 -78 717 272 
Q 322 622 266 1200 
z
" transform="scale(0.015625)"/>
       </defs>
       <use xlink:href="#ArialMT-35"/>
       <use xlink:href="#ArialMT-30" transform="translate(55.615234 0)"/>
       <use xlink:href="#ArialMT-30" transform="translate(111.230469 0)"/>
      </g>
     </g>
    </g>
    <g id="xtick_3">
     <g id="line2d_3">
      <g>
       <use xlink:href="#m7faec14a27" x="737.051563" y="118.08" style="stroke: #000000; stroke-width: 0.8"/>
      </g>
     </g>
     <g id="text_3">
      <!-- 1000 -->
      <g transform="translate(725.929688 132.237813) scale(0.1 -0.1)">
       <defs>
        <path id="ArialMT-31" d="M 2384 0 
L 1822 0 
L 1822 3584 
Q 1619 3391 1289 3197 
Q 959 3003 697 2906 
L 697 3450 
Q 1169 3672 1522 3987 
Q 1875 4303 2022 4600 
L 2384 4600 
L 2384 0 
z
" transform="scale(0.015625)"/>
       </defs>
       <use xlink:href="#ArialMT-31"/>
       <use xlink:href="#ArialMT-30" transform="translate(55.615234 0)"/>
       <use xlink:href="#ArialMT-30" transform="translate(111.230469 0)"/>
       <use xlink:href="#ArialMT-30" transform="translate(166.845703 0)"/>
      </g>
     </g>
    </g>
    <g id="xtick_4">
     <g id="line2d_4">
      <g>
       <use xlink:href="#m7faec14a27" x="618.476563" y="118.08" style="stroke: #000000; stroke-width: 0.8"/>
      </g>
     </g>
     <g id="text_4">
      <!-- 1500 -->
      <g transform="translate(607.354688 132.237813) scale(0.1 -0.1)">
       <use xlink:href="#ArialMT-31"/>
       <use xlink:href="#ArialMT-35" transform="translate(55.615234 0)"/>
       <use xlink:href="#ArialMT-30" transform="translate(111.230469 0)"/>
       <use xlink:href="#ArialMT-30" transform="translate(166.845703 0)"/>
      </g>
     </g>
    </g>
    <g id="xtick_5">
     <g id="line2d_5">
      <g>
       <use xlink:href="#m7faec14a27" x="499.901563" y="118.08" style="stroke: #000000; stroke-width: 0.8"/>
      </g>
     </g>
     <g id="text_5">
      <!-- 2000 -->
      <g transform="translate(488.779688 132.237813) scale(0.1 -0.1)">
       <defs>
        <path id="ArialMT-32" d="M 3222 541 
L 3222 0 
L 194 0 
Q 188 203 259 391 
Q 375 700 629 1000 
Q 884 1300 1366 1694 
Q 2113 2306 2375 2664 
Q 2638 3022 2638 3341 
Q 2638 3675 2398 3904 
Q 2159 4134 1775 4134 
Q 1369 4134 1125 3890 
Q 881 3647 878 3216 
L 300 3275 
Q 359 3922 746 4261 
Q 1134 4600 1788 4600 
Q 2447 4600 2831 4234 
Q 3216 3869 3216 3328 
Q 3216 3053 3103 2787 
Q 2991 2522 2730 2228 
Q 2469 1934 1863 1422 
Q 1356 997 1212 845 
Q 1069 694 975 541 
L 3222 541 
z
" transform="scale(0.015625)"/>
       </defs>
       <use xlink:href="#ArialMT-32"/>
       <use xlink:href="#ArialMT-30" transform="translate(55.615234 0)"/>
       <use xlink:href="#ArialMT-30" transform="translate(111.230469 0)"/>
       <use xlink:href="#ArialMT-30" transform="translate(166.845703 0)"/>
      </g>
     </g>
    </g>
    <g id="xtick_6">
     <g id="line2d_6">
      <g>
       <use xlink:href="#m7faec14a27" x="381.326563" y="118.08" style="stroke: #000000; stroke-width: 0.8"/>
      </g>
     </g>
     <g id="text_6">
      <!-- 2500 -->
      <g transform="translate(370.204688 132.237813) scale(0.1 -0.1)">
       <use xlink:href="#ArialMT-32"/>
       <use xlink:href="#ArialMT-35" transform="translate(55.615234 0)"/>
       <use xlink:href="#ArialMT-30" transform="translate(111.230469 0)"/>
       <use xlink:href="#ArialMT-30" transform="translate(166.845703 0)"/>
      </g>
     </g>
    </g>
    <g id="xtick_7">
     <g id="line2d_7">
      <g>
       <use xlink:href="#m7faec14a27" x="262.751563" y="118.08" style="stroke: #000000; stroke-width: 0.8"/>
      </g>
     </g>
     <g id="text_7">
      <!-- 3000 -->
      <g transform="translate(251.629688 132.237813) scale(0.1 -0.1)">
       <defs>
        <path id="ArialMT-33" d="M 269 1209 
L 831 1284 
Q 928 806 1161 595 
Q 1394 384 1728 384 
Q 2125 384 2398 659 
Q 2672 934 2672 1341 
Q 2672 1728 2419 1979 
Q 2166 2231 1775 2231 
Q 1616 2231 1378 2169 
L 1441 2663 
Q 1497 2656 1531 2656 
Q 1891 2656 2178 2843 
Q 2466 3031 2466 3422 
Q 2466 3731 2256 3934 
Q 2047 4138 1716 4138 
Q 1388 4138 1169 3931 
Q 950 3725 888 3313 
L 325 3413 
Q 428 3978 793 4289 
Q 1159 4600 1703 4600 
Q 2078 4600 2393 4439 
Q 2709 4278 2876 4000 
Q 3044 3722 3044 3409 
Q 3044 3113 2884 2869 
Q 2725 2625 2413 2481 
Q 2819 2388 3044 2092 
Q 3269 1797 3269 1353 
Q 3269 753 2831 336 
Q 2394 -81 1725 -81 
Q 1122 -81 723 278 
Q 325 638 269 1209 
z
" transform="scale(0.015625)"/>
       </defs>
       <use xlink:href="#ArialMT-33"/>
       <use xlink:href="#ArialMT-30" transform="translate(55.615234 0)"/>
       <use xlink:href="#ArialMT-30" transform="translate(111.230469 0)"/>
       <use xlink:href="#ArialMT-30" transform="translate(166.845703 0)"/>
      </g>
     </g>
    </g>
    <g id="xtick_8">
     <g id="line2d_8">
      <g>
       <use xlink:href="#m7faec14a27" x="144.176563" y="118.08" style="stroke: #000000; stroke-width: 0.8"/>
      </g>
     </g>
     <g id="text_8">
      <!-- 3500 -->
      <g transform="translate(133.054688 132.237813) scale(0.1 -0.1)">
       <use xlink:href="#ArialMT-33"/>
       <use xlink:href="#ArialMT-35" transform="translate(55.615234 0)"/>
       <use xlink:href="#ArialMT-30" transform="translate(111.230469 0)"/>
       <use xlink:href="#ArialMT-30" transform="translate(166.845703 0)"/>
      </g>
     </g>
    </g>
    <g id="xtick_9">
     <g id="line2d_9">
      <g>
       <use xlink:href="#m7faec14a27" x="25.601562" y="118.08" style="stroke: #000000; stroke-width: 0.8"/>
      </g>
     </g>
     <g id="text_9">
      <!-- 4000 -->
      <g transform="translate(14.479687 132.237813) scale(0.1 -0.1)">
       <defs>
        <path id="ArialMT-34" d="M 2069 0 
L 2069 1097 
L 81 1097 
L 81 1613 
L 2172 4581 
L 2631 4581 
L 2631 1613 
L 3250 1613 
L 3250 1097 
L 2631 1097 
L 2631 0 
L 2069 0 
z
M 2069 1613 
L 2069 3678 
L 634 1613 
L 2069 1613 
z
" transform="scale(0.015625)"/>
       </defs>
       <use xlink:href="#ArialMT-34"/>
       <use xlink:href="#ArialMT-30" transform="translate(55.615234 0)"/>
       <use xlink:href="#ArialMT-30" transform="translate(111.230469 0)"/>
       <use xlink:href="#ArialMT-30" transform="translate(166.845703 0)"/>
      </g>
     </g>
    </g>
    <g id="xtick_10">
     <g id="line2d_10">
      <defs>
       <path id="mbf5280e502" d="M 0 0 
L 0 2 
" style="stroke: #000000; stroke-width: 0.6"/>
      </defs>
      <g>
       <use xlink:href="#mbf5280e502" x="950.486563" y="118.08" style="stroke: #000000; stroke-width: 0.6"/>
      </g>
     </g>
    </g>
    <g id="xtick_11">
     <g id="line2d_11">
      <g>
       <use xlink:href="#mbf5280e502" x="926.771563" y="118.08" style="stroke: #000000; stroke-width: 0.6"/>
      </g>
     </g>
    </g>
    <g id="xtick_12">
     <g id="line2d_12">
      <g>
       <use xlink:href="#mbf5280e502" x="903.056563" y="118.08" style="stroke: #000000; stroke-width: 0.6"/>
      </g>
     </g>
    </g>
    <g id="xtick_13">
     <g id="line2d_13">
      <g>
       <use xlink:href="#mbf5280e502" x="879.341563" y="118.08" style="stroke: #000000; stroke-width: 0.6"/>
      </g>
     </g>
    </g>
    <g id="xtick_14">
     <g id="line2d_14">
      <g>
       <use xlink:href="#mbf5280e502" x="831.911563" y="118.08" style="stroke: #000000; stroke-width: 0.6"/>
      </g>
     </g>
    </g>
    <g id="xtick_15">
     <g id="line2d_15">
      <g>
       <use xlink:href="#mbf5280e502" x="808.196563" y="118.08" style="stroke: #000000; stroke-width: 0.6"/>
      </g>
     </g>
    </g>
    <g id="xtick_16">
     <g id="line2d_16">
      <g>
       <use xlink:href="#mbf5280e502" x="784.481563" y="118.08" style="stroke: #000000; stroke-width: 0.6"/>
      </g>
     </g>
    </g>
    <g id="xtick_17">
     <g id="line2d_17">
      <g>
       <use xlink:href="#mbf5280e502" x="760.766563" y="118.08" style="stroke: #000000; stroke-width: 0.6"/>
      </g>
     </g>
    </g>
    <g id="xtick_18">
     <g id="line2d_18">
      <g>
       <use xlink:href="#mbf5280e502" x="713.336563" y="118.08" style="stroke: #000000; stroke-width: 0.6"/>
      </g>
     </g>
    </g>
    <g id="xtick_19">
     <g id="line2d_19">
      <g>
       <use xlink:href="#mbf5280e502" x="689.621563" y="118.08" style="stroke: #000000; stroke-width: 0.6"/>
      </g>
     </g>
    </g>
    <g id="xtick_20">
     <g id="line2d_20">
      <g>
       <use xlink:href="#mbf5280e502" x="665.906563" y="118.08" style="stroke: #000000; stroke-width: 0.6"/>
      </g>
     </g>
    </g>
    <g id="xtick_21">
     <g id="line2d_21">
      <g>
       <use xlink:href="#mbf5280e502" x="642.191563" y="118.08" style="stroke: #000000; stroke-width: 0.6"/>
      </g>
     </g>
    </g>
    <g id="xtick_22">
     <g id="line2d_22">
      <g>
       <use xlink:href="#mbf5280e502" x="594.761563" y="118.08" style="stroke: #000000; stroke-width: 0.6"/>
      </g>
     </g>
    </g>
    <g id="xtick_23">
     <g id="line2d_23">
      <g>
       <use xlink:href="#mbf5280e502" x="571.046563" y="118.08" style="stroke: #000000; stroke-width: 0.6"/>
      </g>
     </g>
    </g>
    <g id="xtick_24">
     <g id="line2d_24">
      <g>
       <use xlink:href="#mbf5280e502" x="547.331563" y="118.08" style="stroke: #000000; stroke-width: 0.6"/>
      </g>
     </g>
    </g>
    <g id="xtick_25">
     <g id="line2d_25">
      <g>
       <use xlink:href="#mbf5280e502" x="523.616563" y="118.08" style="stroke: #000000; stroke-width: 0.6"/>
      </g>
     </g>
    </g>
    <g id="xtick_26">
     <g id="line2d_26">
      <g>
       <use xlink:href="#mbf5280e502" x="476.186563" y="118.08" style="stroke: #000000; stroke-width: 0.6"/>
      </g>
     </g>
    </g>
    <g id="xtick_27">
     <g id="line2d_27">
      <g>
       <use xlink:href="#mbf5280e502" x="452.471563" y="118.08" style="stroke: #000000; stroke-width: 0.6"/>
      </g>
     </g>
    </g>
    <g id="xtick_28">
     <g id="line2d_28">
      <g>
       <use xlink:href="#mbf5280e502" x="428.756563" y="118.08" style="stroke: #000000; stroke-width: 0.6"/>
      </g>
     </g>
    </g>
    <g id="xtick_29">
     <g id="line2d_29">
      <g>
       <use xlink:href="#mbf5280e502" x="405.041563" y="118.08" style="stroke: #000000; stroke-width: 0.6"/>
      </g>
     </g>
    </g>
    <g id="xtick_30">
     <g id="line2d_30">
      <g>
       <use xlink:href="#mbf5280e502" x="357.611563" y="118.08" style="stroke: #000000; stroke-width: 0.6"/>
      </g>
     </g>
    </g>
    <g id="xtick_31">
     <g id="line2d_31">
      <g>
       <use xlink:href="#mbf5280e502" x="333.896563" y="118.08" style="stroke: #000000; stroke-width: 0.6"/>
      </g>
     </g>
    </g>
    <g id="xtick_32">
     <g id="line2d_32">
      <g>
       <use xlink:href="#mbf5280e502" x="310.181563" y="118.08" style="stroke: #000000; stroke-width: 0.6"/>
      </g>
     </g>
    </g>
    <g id="xtick_33">
     <g id="line2d_33">
      <g>
       <use xlink:href="#mbf5280e502" x="286.466563" y="118.08" style="stroke: #000000; stroke-width: 0.6"/>
      </g>
     </g>
    </g>
    <g id="xtick_34">
     <g id="line2d_34">
      <g>
       <use xlink:href="#mbf5280e502" x="239.036563" y="118.08" style="stroke: #000000; stroke-width: 0.6"/>
      </g>
     </g>
    </g>
    <g id="xtick_35">
     <g id="line2d_35">
      <g>
       <use xlink:href="#mbf5280e502" x="215.321563" y="118.08" style="stroke: #000000; stroke-width: 0.6"/>
      </g>
     </g>
    </g>
    <g id="xtick_36">
     <g id="line2d_36">
      <g>
       <use xlink:href="#mbf5280e502" x="191.606562" y="118.08" style="stroke: #000000; stroke-width: 0.6"/>
      </g>
     </g>
    </g>
    <g id="xtick_37">
     <g id="line2d_37">
      <g>
       <use xlink:href="#mbf5280e502" x="167.891563" y="118.08" style="stroke: #000000; stroke-width: 0.6"/>
      </g>
     </g>
    </g>
    <g id="xtick_38">
     <g id="line2d_38">
      <g>
       <use xlink:href="#mbf5280e502" x="120.461563" y="118.08" style="stroke: #000000; stroke-width: 0.6"/>
      </g>
     </g>
    </g>
    <g id="xtick_39">
     <g id="line2d_39">
      <g>
       <use xlink:href="#mbf5280e502" x="96.746562" y="118.08" style="stroke: #000000; stroke-width: 0.6"/>
      </g>
     </g>
    </g>
    <g id="xtick_40">
     <g id="line2d_40">
      <g>
       <use xlink:href="#mbf5280e502" x="73.031563" y="118.08" style="stroke: #000000; stroke-width: 0.6"/>
      </g>
     </g>
    </g>
    <g id="xtick_41">
     <g id="line2d_41">
      <g>
       <use xlink:href="#mbf5280e502" x="49.316563" y="118.08" style="stroke: #000000; stroke-width: 0.6"/>
      </g>
     </g>
    </g>
   </g>
   <g id="matplotlib.axis_2">
    <g id="ytick_1">
     <g id="line2d_42">
      <defs>
       <path id="mec85b7148c" d="M 0 0 
L -3.5 0 
" style="stroke: #000000; stroke-width: 0.8"/>
      </defs>
      <g>
       <use xlink:href="#mec85b7148c" x="25.601563" y="108" style="stroke: #000000; stroke-width: 0.8"/>
      </g>
     </g>
     <g id="text_10">
      <!-- −2 -->
      <g transform="translate(7.2 111.578906) scale(0.1 -0.1)">
       <defs>
        <path id="ArialMT-2212" d="M 3381 1997 
L 356 1997 
L 356 2522 
L 3381 2522 
L 3381 1997 
z
" transform="scale(0.015625)"/>
       </defs>
       <use xlink:href="#ArialMT-2212"/>
       <use xlink:href="#ArialMT-32" transform="translate(58.398438 0)"/>
      </g>
     </g>
    </g>
    <g id="ytick_2">
     <g id="line2d_43">
      <g>
       <use xlink:href="#mec85b7148c" x="25.601563" y="67.68" style="stroke: #000000; stroke-width: 0.8"/>
      </g>
     </g>
     <g id="text_11">
      <!-- 0 -->
      <g transform="translate(13.040625 71.258906) scale(0.1 -0.1)">
       <use xlink:href="#ArialMT-30"/>
      </g>
     </g>
    </g>
    <g id="ytick_3">
     <g id="line2d_44">
      <g>
       <use xlink:href="#mec85b7148c" x="25.601563" y="27.36" style="stroke: #000000; stroke-width: 0.8"/>
      </g>
     </g>
     <g id="text_12">
      <!-- 2 -->
      <g transform="translate(13.040625 30.938906) scale(0.1 -0.1)">
       <use xlink:href="#ArialMT-32"/>
      </g>
     </g>
    </g>
   </g>
   <g id="line2d_45">
    <path d="M 25.601563 67.68 
L 974.201563 67.68 
" clip-path="url(#paf8bcd51aa)" style="fill: none; stroke-dasharray: 5.55,2.4; stroke-dashoffset: 0; stroke: #000000; stroke-opacity: 0.25; stroke-width: 1.5"/>
   </g>
   <g id="line2d_46">
    <path d="M 950.486563 60.4224 
L 713.336563 60.4224 
L 476.186563 55.1808 
L 239.036563 65.0592 
L 1.886562 65.664 
" clip-path="url(#paf8bcd51aa)" style="fill: none; stroke: #2ca02c; stroke-opacity: 0.25; stroke-width: 1.5; stroke-linecap: square"/>
   </g>
   <g id="line2d_47">
    <path d="M 970.644313 67.68 
L 951.435163 67.68 
L 949.775113 58.8096 
L 947.640763 49.1328 
L 945.743563 37.0368 
L 943.609213 64.152 
L 941.474863 71.9136 
L 939.340513 67.176 
L 937.206163 67.176 
L 935.071813 72.9216 
L 932.700313 59.7168 
L 930.565963 73.224 
L 928.194463 78.8688 
L 925.585813 63.8496 
L 923.214313 71.712 
L 920.605663 57.096 
L 918.234163 64.8576 
L 915.862663 74.9376 
L 913.491163 80.0784 
L 910.882513 62.5392 
L 908.511013 92.2752 
L 905.902363 63.4464 
L 903.293713 59.2128 
L 900.685063 60.5232 
L 898.313563 67.8816 
L 895.467763 69.0912 
L 892.859113 81.8928 
L 890.250463 71.1072 
L 887.404663 66.0672 
L 884.796013 79.9776 
L 881.950213 71.8128 
L 879.104413 73.6272 
L 876.495763 67.3776 
L 873.649963 74.4336 
L 870.804163 76.752 
L 867.958363 83.1024 
L 865.112563 72.4176 
L 862.266763 68.8896 
L 859.420963 65.5632 
L 856.812313 85.1184 
L 853.966513 66.0672 
L 851.120713 66.2688 
L 848.274913 73.3248 
L 845.429113 75.744 
L 842.583313 63.4464 
L 839.500363 91.4688 
L 836.417413 76.248 
L 833.334463 71.3088 
L 830.251513 54.9792 
L 827.168563 60.624 
L 824.085613 75.4416 
L 821.002663 53.568 
L 817.919713 76.4496 
L 815.073913 75.8448 
L 811.990963 52.9632 
L 808.908013 57.8016 
L 805.825063 64.9584 
L 802.742113 77.3568 
L 799.422013 73.8288 
L 795.864763 74.0304 
L 792.544663 72.6192 
L 785.904463 82.1952 
L 782.347213 76.8528 
L 778.789963 68.688 
L 775.707013 69.2928 
L 772.386913 64.4544 
L 769.303963 67.3776 
L 766.221013 62.0352 
L 763.138063 58.2048 
L 760.292263 55.8864 
L 757.446463 52.56 
L 754.363513 78.0624 
L 751.280563 61.7328 
L 747.960463 81.8928 
L 744.640363 58.4064 
L 741.320263 78.0624 
L 737.763013 74.4336 
L 734.205763 73.224 
L 730.885663 75.24 
L 727.328413 63.8496 
L 724.008313 71.712 
L 720.451063 72.1152 
L 717.130963 77.256 
L 714.048013 66.2688 
L 710.490763 57.7008 
L 707.170663 64.0512 
L 703.850563 75.24 
L 700.530463 75.744 
L 696.973213 60.4224 
L 693.653113 73.1232 
L 690.095863 52.056 
L 686.775763 76.752 
L 683.455663 71.1072 
L 680.372713 58.3056 
L 677.052613 57.2976 
L 673.969663 58.8096 
L 670.649563 73.1232 
L 667.329463 61.8336 
L 663.772213 63.9504 
L 660.452113 64.9584 
L 656.894863 69.2928 
L 653.574763 70.704 
L 650.017513 55.2816 
L 646.697413 65.4624 
L 643.377313 58.7088 
L 639.820063 69.3936 
L 636.499963 52.056 
L 633.179863 58.7088 
L 629.859763 69.3936 
L 626.539663 67.8816 
L 622.982413 72.5184 
L 619.188013 74.736 
L 615.393613 72.216 
L 611.836363 57.1968 
L 608.041963 77.0544 
L 604.484713 70.9056 
L 600.690313 73.1232 
L 597.133063 70.4016 
L 593.338663 58.608 
L 589.781413 76.9536 
L 585.987013 67.2768 
L 582.192613 65.2608 
L 578.398213 79.272 
L 574.366663 76.1472 
L 570.572263 60.3216 
L 566.540713 80.1792 
L 562.746313 63.4464 
L 558.951913 64.152 
L 555.157513 75.8448 
L 550.888813 73.3248 
L 546.857263 68.7888 
L 542.825713 66.672 
L 538.794163 62.136 
L 534.999763 81.8928 
L 530.968213 65.16 
L 526.699513 78.1632 
L 522.667963 77.6592 
L 518.636413 64.152 
L 514.604863 78.3648 
L 510.810463 49.6368 
L 507.016063 67.68 
L 502.984513 67.5792 
L 499.190113 71.5104 
L 494.921413 65.8656 
L 490.889863 70.704 
L 486.858313 75.0384 
L 482.826763 78.5664 
L 478.558063 67.8816 
L 474.052213 76.9536 
L 470.020663 51.3504 
L 465.989113 74.736 
L 461.957563 75.1392 
L 457.688863 63.2448 
L 453.657313 74.1312 
L 449.625763 71.1072 
L 445.357063 77.9616 
L 440.851213 72.5184 
L 436.582513 72.3168 
L 432.550963 65.664 
L 428.282263 59.0112 
L 424.487863 64.656 
L 420.219163 71.208 
L 415.950463 65.9664 
L 411.918913 88.344 
L 406.938763 81.8928 
L 402.195763 74.0304 
L 397.452763 76.0464 
L 393.184063 77.1552 
L 388.441063 87.5376 
L 383.935213 75.5424 
L 379.429363 67.68 
L 374.686363 74.232 
L 370.417663 74.0304 
L 365.911813 66.0672 
L 361.643113 72.216 
L 357.611563 58.4064 
L 353.342863 68.7888 
L 349.074163 62.5392 
L 344.805463 75.4416 
L 340.536763 63.9504 
L 336.268063 59.112 
L 332.236513 66.7728 
L 328.204963 69.5952 
L 323.699113 73.3248 
L 319.193263 69.696 
L 314.924563 76.5504 
L 310.655863 54.6768 
L 306.624313 58.7088 
L 302.592763 59.5152 
L 298.561213 58.5072 
L 294.529663 67.5792 
L 290.498113 54.3744 
L 286.466563 56.3904 
L 282.435013 56.3904 
L 278.166313 67.2768 
L 273.897613 74.1312 
L 269.628913 77.76 
L 265.360213 61.9344 
L 260.854363 64.7568 
L 256.585663 71.1072 
L 252.079813 76.8528 
L 247.336813 67.7808 
L 242.830963 72.8208 
L 238.562263 66.672 
L 234.056413 66.168 
L 229.787712 67.9824 
L 225.519013 61.3296 
L 221.250313 58.104 
L 216.744463 54.8784 
L 212.475763 82.3968 
L 208.207063 76.8528 
L 203.226913 80.784 
L 198.246763 61.4304 
L 193.503762 75.9456 
L 188.760763 85.4208 
L 184.017763 62.9424 
L 179.274763 75.1392 
L 174.531763 78.264 
L 170.025913 60.624 
L 165.282913 74.8368 
L 160.777063 82.1952 
L 156.034063 67.7808 
L 151.291063 70.5024 
L 146.548063 72.1152 
L 141.805063 69.4944 
L 137.062063 67.8816 
L 132.556213 63.0432 
L 128.050363 78.1632 
L 123.544512 54.072 
L 119.038662 66.168 
L 114.769963 70.6032 
L 110.264113 66.0672 
L 105.521113 74.4336 
L 100.778113 58.4064 
L 96.509413 59.9184 
L 92.240713 65.9664 
L 87.972013 61.4304 
L 83.466162 57.2976 
L 79.197463 77.9616 
L 74.928763 53.9712 
L 70.422913 54.9792 
L 66.154213 83.5056 
L 61.648363 56.8944 
L 57.142513 66.8736 
L 52.399513 65.0592 
L 47.656513 74.736 
L 43.150663 76.9536 
L 38.407663 60.4224 
L 33.901813 68.8896 
L 29.158813 72.9216 
L 24.415813 69.5952 
L 24.415813 69.5952 
" clip-path="url(#paf8bcd51aa)" style="fill: none; stroke: #d62728; stroke-opacity: 0.25; stroke-width: 1.5; stroke-linecap: square"/>
   </g>
   <g id="line2d_48">
    <path d="M 970.644313 67.68 
L 958.786813 67.68 
L 958.786813 62.2368 
L 946.929313 62.2368 
L 946.929313 65.664 
L 935.071813 65.664 
L 935.071813 71.5104 
L 923.214313 71.5104 
L 923.214313 71.1072 
L 911.356813 71.1072 
L 911.356813 74.3328 
L 899.499313 74.3328 
L 899.499313 76.9536 
L 887.641813 76.9536 
L 887.641813 74.1312 
L 875.784313 74.1312 
L 875.784313 72.1152 
L 863.926813 72.1152 
L 863.926813 70.3008 
L 852.069313 70.3008 
L 852.069313 70.9056 
L 840.211813 70.9056 
L 840.211813 66.2688 
L 828.354313 66.2688 
L 828.354313 68.8896 
L 816.496813 68.8896 
L 816.496813 74.9376 
L 804.639313 74.9376 
L 804.639313 69.696 
L 792.781813 69.696 
L 792.781813 70.5024 
L 780.924313 70.5024 
L 780.924313 74.3328 
L 769.066813 74.3328 
L 769.066813 72.1152 
L 757.209313 72.1152 
L 757.209313 69.2928 
L 745.351813 69.2928 
L 745.351813 74.736 
L 733.494313 74.736 
L 733.494313 65.0592 
L 721.636813 65.0592 
L 721.636813 66.2688 
L 709.779313 66.2688 
L 709.779313 73.5264 
L 697.921813 73.5264 
L 697.921813 72.5184 
L 686.064313 72.5184 
L 686.064313 69.8976 
L 674.206813 69.8976 
L 674.206813 68.8896 
L 662.349313 68.8896 
L 662.349313 68.688 
L 650.491813 68.688 
L 650.491813 66.2688 
L 638.634313 66.2688 
L 638.634313 67.8816 
L 626.776813 67.8816 
L 626.776813 66.2688 
L 614.919313 66.2688 
L 614.919313 75.1392 
L 603.061813 75.1392 
L 603.061813 71.1072 
L 591.204313 71.1072 
L 591.204313 62.4384 
L 579.346813 62.4384 
L 579.346813 75.1392 
L 567.489313 75.1392 
L 567.489313 68.0832 
L 555.631813 68.0832 
L 555.631813 75.744 
L 543.774313 75.744 
L 543.774313 71.3088 
L 531.916813 71.3088 
L 531.916813 67.68 
L 520.059313 67.68 
L 520.059313 59.616 
L 508.201813 59.616 
L 508.201813 65.2608 
L 496.344313 65.2608 
L 496.344313 64.8576 
L 484.486813 64.8576 
L 484.486813 66.672 
L 472.629313 66.672 
L 472.629313 67.68 
L 460.771813 67.68 
L 460.771813 73.9296 
L 448.914313 73.9296 
L 448.914313 69.696 
L 437.056813 69.696 
L 437.056813 61.4304 
L 425.199313 61.4304 
L 425.199313 64.656 
L 413.341813 64.656 
L 413.341813 66.2688 
L 401.484313 66.2688 
L 401.484313 63.8496 
L 389.626813 63.8496 
L 389.626813 74.5344 
L 377.769313 74.5344 
L 377.769313 68.4864 
L 365.911813 68.4864 
L 365.911813 66.4704 
L 354.054313 66.4704 
L 354.054313 69.0912 
L 342.196813 69.0912 
L 342.196813 69.696 
L 330.339313 69.696 
L 330.339313 67.68 
L 318.481813 67.68 
L 318.481813 62.64 
L 306.624313 62.64 
L 306.624313 64.2528 
L 294.766813 64.2528 
L 294.766813 66.8736 
L 282.909313 66.8736 
L 282.909313 65.2608 
L 271.051813 65.2608 
L 271.051813 59.4144 
L 259.194313 59.4144 
L 259.194313 64.4544 
L 247.336813 64.4544 
L 247.336813 67.68 
L 235.479313 67.68 
L 235.479313 63.4464 
L 223.621813 63.4464 
L 223.621813 65.0592 
L 211.764313 65.0592 
L 211.764313 67.4784 
L 199.906813 67.4784 
L 199.906813 66.0672 
L 188.049313 66.0672 
L 188.049313 67.0752 
L 176.191813 67.0752 
L 176.191813 63.4464 
L 164.334313 63.4464 
L 164.334313 62.0352 
L 152.476813 62.0352 
L 152.476813 65.8656 
L 140.619313 65.8656 
L 140.619313 64.8576 
L 128.761813 64.8576 
L 128.761813 64.2528 
L 116.904313 64.2528 
L 116.904313 66.8736 
L 105.046812 66.8736 
L 105.046812 57.1968 
L 93.189313 57.1968 
L 93.189313 59.2128 
L 81.331813 59.2128 
L 81.331813 65.664 
L 57.616813 65.664 
L 57.616813 67.8816 
L 45.759313 67.8816 
L 45.759313 66.4704 
L 33.901813 66.4704 
L 33.901813 65.8656 
L 22.044313 65.8656 
L 22.044313 65.8656 
" clip-path="url(#paf8bcd51aa)" style="fill: none; stroke: #8c564b; stroke-opacity: 0.25; stroke-width: 1.5; stroke-linecap: square"/>
   </g>
   <g id="line2d_49">
    <path d="M 956.415313 55.584 
L 951.672313 69.696 
L 946.929313 72.9216 
L 942.186313 72.9216 
L 937.443313 71.5104 
L 932.700313 70.9056 
L 927.957313 70.704 
L 923.214313 72.72 
L 918.471313 72.1152 
L 913.728313 72.1152 
L 908.985313 75.1392 
L 904.242313 74.736 
L 899.499313 75.1392 
L 890.013313 74.3328 
L 885.270313 74.1312 
L 880.527313 73.728 
L 875.784313 73.5264 
L 871.041313 73.1232 
L 866.298313 72.5184 
L 861.555313 72.1152 
L 856.812313 72.72 
L 852.069313 72.3168 
L 847.326313 72.3168 
L 842.583313 71.9136 
L 837.840313 73.3248 
L 833.097313 72.9216 
L 828.354313 71.3088 
L 818.868313 70.9056 
L 814.125313 70.3008 
L 809.382313 70.0992 
L 799.896313 70.5024 
L 795.153313 70.0992 
L 790.410313 70.3008 
L 785.667313 71.712 
L 776.181313 71.3088 
L 771.438313 70.5024 
L 766.695313 69.8976 
L 757.209313 69.4944 
L 747.723313 69.4944 
L 742.980313 69.2928 
L 733.494313 69.2928 
L 728.751313 69.0912 
L 724.008313 68.688 
L 719.265313 68.8896 
L 700.293313 68.0832 
L 695.550313 67.68 
L 671.835313 67.68 
L 667.092313 68.0832 
L 648.120313 68.0832 
L 643.377313 68.2848 
L 638.634313 68.0832 
L 619.662313 68.0832 
L 614.919313 69.0912 
L 610.176313 69.0912 
L 605.433313 69.2928 
L 595.947313 68.8896 
L 591.204313 69.0912 
L 543.774313 69.0912 
L 539.031313 68.8896 
L 491.601313 68.8896 
L 486.858313 68.688 
L 482.115313 68.688 
L 472.629313 68.2848 
L 467.886313 68.2848 
L 463.143313 68.0832 
L 453.657313 68.0832 
L 448.914313 67.8816 
L 439.428313 67.8816 
L 434.685313 67.68 
L 429.942313 67.68 
L 425.199313 67.4784 
L 410.970313 67.4784 
L 406.227313 67.2768 
L 391.998313 67.2768 
L 382.512313 66.8736 
L 320.853313 66.8736 
L 316.110313 66.672 
L 301.881313 66.672 
L 297.138313 66.4704 
L 278.166313 66.4704 
L 273.423313 66.672 
L 268.680313 66.4704 
L 263.937313 66.672 
L 235.479313 66.672 
L 230.736313 66.8736 
L 225.993313 66.8736 
L 221.250313 67.0752 
L 207.021313 67.0752 
L 202.278313 66.8736 
L 197.535313 66.8736 
L 192.792313 66.672 
L 188.049313 66.672 
L 169.077313 65.8656 
L 164.334313 65.8656 
L 159.591313 65.664 
L 145.362313 65.664 
L 140.619313 65.4624 
L 121.647312 65.4624 
L 116.904313 65.2608 
L 112.161313 65.2608 
L 88.446313 64.2528 
L 83.703313 64.2528 
L 78.960312 64.0512 
L 59.988313 64.0512 
L 55.245313 63.8496 
L 31.530313 63.8496 
L 26.787312 63.648 
L 22.044313 63.648 
L 17.301312 63.4464 
L 7.815313 63.4464 
L 3.072313 63.2448 
L -1 63.2448 
L -1 63.2448 
" clip-path="url(#paf8bcd51aa)" style="fill: none; stroke: #7f7f7f; stroke-opacity: 0.25; stroke-width: 1.5; stroke-linecap: square"/>
   </g>
   <g id="patch_3">
    <path d="M 25.601563 118.08 
L 25.601563 7.2 
" style="fill: none; stroke: #000000; stroke-width: 0.8; stroke-linejoin: miter; stroke-linecap: square"/>
   </g>
   <g id="patch_4">
    <path d="M 974.201563 118.08 
L 974.201563 7.2 
" style="fill: none; stroke: #000000; stroke-width: 0.8; stroke-linejoin: miter; stroke-linecap: square"/>
   </g>
   <g id="patch_5">
    <path d="M 25.601562 118.08 
L 974.201563 118.08 
" style="fill: none; stroke: #000000; stroke-width: 0.8; stroke-linejoin: miter; stroke-linecap: square"/>
   </g>
   <g id="patch_6">
    <path d="M 25.601562 7.2 
L 974.201563 7.2 
" style="fill: none; stroke: #000000; stroke-width: 0.8; stroke-linejoin: miter; stroke-linecap: square"/>
   </g>
  </g>
 </g>
 <defs>
  <clipPath id="paf8bcd51aa">
   <rect x="25.601563" y="7.2" width="948.6" height="110.88"/>
  </clipPath>
 </defs>
</svg>
